<svg id="visual" viewBox="0 0 900 675" width="900" height="675" xmlns="http://www.w3.org/2000/svg" xmlns:xlink="http://www.w3.org/1999/xlink" version="1.1"><rect x="0" y="0" width="900" height="675" fill="#fcfbfe"></rect><defs><linearGradient id="grad1_0" x1="25%" y1="100%" x2="100%" y2="0%"><stop offset="23.333333333333336%" stop-color="#fcfbfe" stop-opacity="1"></stop><stop offset="76.66666666666666%" stop-color="#fcfbfe" stop-opacity="1"></stop></linearGradient></defs><defs><linearGradient id="grad2_0" x1="0%" y1="100%" x2="75%" y2="0%"><stop offset="23.333333333333336%" stop-color="#fcfbfe" stop-opacity="1"></stop><stop offset="76.66666666666666%" stop-color="#fcfbfe" stop-opacity="1"></stop></linearGradient></defs><g transform="translate(900, 675)"><path d="M-421.9 0C-406.9 -40.4 -392 -80.8 -381.4 -123.9C-370.7 -167 -364.4 -212.9 -341.3 -248C-318.2 -283 -278.5 -307.3 -241 -331.7C-203.5 -356.1 -168.3 -380.6 -128.6 -395.6C-88.8 -410.7 -44.4 -416.3 0 -421.9L0 0Z" fill="#c5e0ef"></path></g><g transform="translate(0, 0)"><path d="M421.9 0C414.3 43 406.8 86.1 394.7 128.2C382.6 170.4 366.1 211.7 341.3 248C316.5 284.3 283.6 315.5 246.9 339.8C210.2 364 169.7 381.2 127.9 393.7C86.2 406.2 43.1 414.1 0 421.9L0 0Z" fill="#c5e0ef"></path></g></svg>