<svg id="visual" viewBox="0 0 900 600" width="900" height="600" xmlns="http://www.w3.org/2000/svg" xmlns:xlink="http://www.w3.org/1999/xlink" version="1.1"><rect x="0" y="0" width="900" height="600" fill="#ffffff"></rect><path d="M0 214L18.8 218.8C37.7 223.7 75.3 233.3 112.8 235.3C150.3 237.3 187.7 231.7 225.2 226.3C262.7 221 300.3 216 337.8 222C375.3 228 412.7 245 450.2 247.7C487.7 250.3 525.3 238.7 562.8 234.3C600.3 230 637.7 233 675.2 243.5C712.7 254 750.3 272 787.8 278.3C825.3 284.7 862.7 279.3 881.3 276.7L900 274L900 0L881.3 0C862.7 0 825.3 0 787.8 0C750.3 0 712.7 0 675.2 0C637.7 0 600.3 0 562.8 0C525.3 0 487.7 0 450.2 0C412.7 0 375.3 0 337.8 0C300.3 0 262.7 0 225.2 0C187.7 0 150.3 0 112.8 0C75.3 0 37.7 0 18.8 0L0 0Z" fill="#88c9ff"></path><path d="M0 149L18.8 162.7C37.7 176.3 75.3 203.7 112.8 210.8C150.3 218 187.7 205 225.2 198C262.7 191 300.3 190 337.8 194.8C375.3 199.7 412.7 210.3 450.2 214C487.7 217.7 525.3 214.3 562.8 209C600.3 203.7 637.7 196.3 675.2 201C712.7 205.7 750.3 222.3 787.8 221C825.3 219.7 862.7 200.3 881.3 190.7L900 181L900 0L881.3 0C862.7 0 825.3 0 787.8 0C750.3 0 712.7 0 675.2 0C637.7 0 600.3 0 562.8 0C525.3 0 487.7 0 450.2 0C412.7 0 375.3 0 337.8 0C300.3 0 262.7 0 225.2 0C187.7 0 150.3 0 112.8 0C75.3 0 37.7 0 18.8 0L0 0Z" fill="#54a1f1"></path><path d="M0 122L18.8 122.2C37.7 122.3 75.3 122.7 112.8 127.8C150.3 133 187.7 143 225.2 151.2C262.7 159.3 300.3 165.7 337.8 167C375.3 168.3 412.7 164.7 450.2 163.7C487.7 162.7 525.3 164.3 562.8 159.7C600.3 155 637.7 144 675.2 135C712.7 126 750.3 119 787.8 119.2C825.3 119.3 862.7 126.7 881.3 130.3L900 134L900 0L881.3 0C862.7 0 825.3 0 787.8 0C750.3 0 712.7 0 675.2 0C637.7 0 600.3 0 562.8 0C525.3 0 487.7 0 450.2 0C412.7 0 375.3 0 337.8 0C300.3 0 262.7 0 225.2 0C187.7 0 150.3 0 112.8 0C75.3 0 37.7 0 18.8 0L0 0Z" fill="#2c78df"></path><path d="M0 74L18.8 73C37.7 72 75.3 70 112.8 74C150.3 78 187.7 88 225.2 90.3C262.7 92.7 300.3 87.3 337.8 88C375.3 88.7 412.7 95.3 450.2 88.2C487.7 81 525.3 60 562.8 50.7C600.3 41.3 637.7 43.7 675.2 48.7C712.7 53.7 750.3 61.3 787.8 65C825.3 68.7 862.7 68.3 881.3 68.2L900 68L900 0L881.3 0C862.7 0 825.3 0 787.8 0C750.3 0 712.7 0 675.2 0C637.7 0 600.3 0 562.8 0C525.3 0 487.7 0 450.2 0C412.7 0 375.3 0 337.8 0C300.3 0 262.7 0 225.2 0C187.7 0 150.3 0 112.8 0C75.3 0 37.7 0 18.8 0L0 0Z" fill="#244dc7"></path></svg>