<svg id="visual" viewBox="0 0 960 540" width="960" height="540" xmlns="http://www.w3.org/2000/svg" xmlns:xlink="http://www.w3.org/1999/xlink" version="1.1"><rect x="0" y="0" width="960" height="540" fill="#ffffff"></rect><path d="M0 321L22.8 324.7C45.7 328.3 91.3 335.7 137 342.8C182.7 350 228.3 357 274 353C319.7 349 365.3 334 411.2 334.7C457 335.3 503 351.7 548.8 365.3C594.7 379 640.3 390 686 388.5C731.7 387 777.3 373 823 369C868.7 365 914.3 371 937.2 374L960 377L960 541L937.2 541C914.3 541 868.7 541 823 541C777.3 541 731.7 541 686 541C640.3 541 594.7 541 548.8 541C503 541 457 541 411.2 541C365.3 541 319.7 541 274 541C228.3 541 182.7 541 137 541C91.3 541 45.7 541 22.8 541L0 541Z" fill="#88c9ff"></path><path d="M0 357L22.8 365.2C45.7 373.3 91.3 389.7 137 390.3C182.7 391 228.3 376 274 369C319.7 362 365.3 363 411.2 365.8C457 368.7 503 373.3 548.8 374.5C594.7 375.7 640.3 373.3 686 371C731.7 368.7 777.3 366.3 823 365C868.7 363.7 914.3 363.3 937.2 363.2L960 363L960 541L937.2 541C914.3 541 868.7 541 823 541C777.3 541 731.7 541 686 541C640.3 541 594.7 541 548.8 541C503 541 457 541 411.2 541C365.3 541 319.7 541 274 541C228.3 541 182.7 541 137 541C91.3 541 45.7 541 22.8 541L0 541Z" fill="#60abf5"></path><path d="M0 402L22.8 403.2C45.7 404.3 91.3 406.7 137 414.2C182.7 421.7 228.3 434.3 274 436C319.7 437.7 365.3 428.3 411.2 426.5C457 424.7 503 430.3 548.8 426.2C594.7 422 640.3 408 686 407.2C731.7 406.3 777.3 418.7 823 419.5C868.7 420.3 914.3 409.7 937.2 404.3L960 399L960 541L937.2 541C914.3 541 868.7 541 823 541C777.3 541 731.7 541 686 541C640.3 541 594.7 541 548.8 541C503 541 457 541 411.2 541C365.3 541 319.7 541 274 541C228.3 541 182.7 541 137 541C91.3 541 45.7 541 22.8 541L0 541Z" fill="#3e8de9"></path><path d="M0 468L22.8 465.2C45.7 462.3 91.3 456.7 137 452.7C182.7 448.7 228.3 446.3 274 446.5C319.7 446.7 365.3 449.3 411.2 452.8C457 456.3 503 460.7 548.8 463.7C594.7 466.7 640.3 468.3 686 471.3C731.7 474.3 777.3 478.7 823 474.8C868.7 471 914.3 459 937.2 453L960 447L960 541L937.2 541C914.3 541 868.7 541 823 541C777.3 541 731.7 541 686 541C640.3 541 594.7 541 548.8 541C503 541 457 541 411.2 541C365.3 541 319.7 541 274 541C228.3 541 182.7 541 137 541C91.3 541 45.7 541 22.8 541L0 541Z" fill="#266eda"></path><path d="M0 475L22.8 475C45.7 475 91.3 475 137 476.8C182.7 478.7 228.3 482.3 274 487.2C319.7 492 365.3 498 411.2 496.8C457 495.7 503 487.3 548.8 484.7C594.7 482 640.3 485 686 486.5C731.7 488 777.3 488 823 487.3C868.7 486.7 914.3 485.3 937.2 484.7L960 484L960 541L937.2 541C914.3 541 868.7 541 823 541C777.3 541 731.7 541 686 541C640.3 541 594.7 541 548.8 541C503 541 457 541 411.2 541C365.3 541 319.7 541 274 541C228.3 541 182.7 541 137 541C91.3 541 45.7 541 22.8 541L0 541Z" fill="#244dc7"></path></svg>