<svg id="visual" viewBox="0 0 600 900" width="600" height="900" xmlns="http://www.w3.org/2000/svg" xmlns:xlink="http://www.w3.org/1999/xlink" version="1.1"><rect x="0" y="0" width="600" height="900" fill="#fcfbfe"></rect><defs><linearGradient id="grad1_0" x1="0%" y1="100%" x2="100%" y2="0%"><stop offset="30%" stop-color="#fcfbfe" stop-opacity="1"></stop><stop offset="70%" stop-color="#fcfbfe" stop-opacity="1"></stop></linearGradient></defs><defs><linearGradient id="grad2_0" x1="0%" y1="100%" x2="100%" y2="0%"><stop offset="30%" stop-color="#fcfbfe" stop-opacity="1"></stop><stop offset="70%" stop-color="#fcfbfe" stop-opacity="1"></stop></linearGradient></defs><g transform="translate(600, 900)"><path d="M-405.6 0C-402.4 -43.2 -399.1 -86.5 -383.3 -124.5C-367.5 -162.6 -339.1 -195.5 -312.3 -226.9C-285.4 -258.3 -260.1 -288.1 -229.8 -316.3C-199.6 -344.6 -164.5 -371.2 -125.3 -385.8C-86.2 -400.4 -43.1 -403 0 -405.6L0 0Z" fill="#c5e0ef"></path></g><g transform="translate(0, 0)"><path d="M405.6 0C399.1 41.4 392.6 82.8 381.4 123.9C370.2 165 354.2 205.8 328.2 238.4C302.1 271.1 265.9 295.6 229.8 316.3C193.8 337 157.9 353.8 119.6 368.1C81.3 382.3 40.7 394 0 405.6L0 0Z" fill="#c5e0ef"></path></g></svg>