<svg id="visual" viewBox="0 0 960 540" width="960" height="540" xmlns="http://www.w3.org/2000/svg" xmlns:xlink="http://www.w3.org/1999/xlink" version="1.1"><rect x="0" y="0" width="960" height="540" fill="#ffffff"></rect><g transform="translate(960 540)"><path d="M297.2 -409.1C382.8 -346.9 448.2 -256.9 480.9 -156.2C513.6 -55.6 513.6 55.6 480.9 156.2C448.2 256.9 382.8 346.9 297.2 409.1C211.6 471.2 105.8 505.6 0 505.6C-105.8 505.6 -211.6 471.2 -297.2 409.1C-382.8 346.9 -448.2 256.9 -480.9 156.2C-513.6 55.6 -513.6 -55.6 -480.9 -156.2C-448.2 -256.9 -382.8 -346.9 -297.2 -409.1C-211.6 -471.2 -105.8 -505.6 0 -505.6C105.8 -505.6 211.6 -471.2 297.2 -409.1" fill="#0066FF"></path></g></svg>