<svg id="visual" viewBox="0 0 960 540" width="960" height="540" xmlns="http://www.w3.org/2000/svg" xmlns:xlink="http://www.w3.org/1999/xlink" version="1.1"><path d="M0 135L22.8 137.2C45.7 139.3 91.3 143.7 137 155.2C182.7 166.7 228.3 185.3 274 195C319.7 204.7 365.3 205.3 411.2 198.3C457 191.3 503 176.7 548.8 178.8C594.7 181 640.3 200 686 200.5C731.7 201 777.3 183 823 183C868.7 183 914.3 201 937.2 210L960 219L960 0L937.2 0C914.3 0 868.7 0 823 0C777.3 0 731.7 0 686 0C640.3 0 594.7 0 548.8 0C503 0 457 0 411.2 0C365.3 0 319.7 0 274 0C228.3 0 182.7 0 137 0C91.3 0 45.7 0 22.8 0L0 0Z" fill="#0066ff"></path><path d="M0 123L22.8 126.5C45.7 130 91.3 137 137 142C182.7 147 228.3 150 274 144.7C319.7 139.3 365.3 125.7 411.2 118C457 110.3 503 108.7 548.8 119.8C594.7 131 640.3 155 686 160.8C731.7 166.7 777.3 154.3 823 149.3C868.7 144.3 914.3 146.7 937.2 147.8L960 149L960 0L937.2 0C914.3 0 868.7 0 823 0C777.3 0 731.7 0 686 0C640.3 0 594.7 0 548.8 0C503 0 457 0 411.2 0C365.3 0 319.7 0 274 0C228.3 0 182.7 0 137 0C91.3 0 45.7 0 22.8 0L0 0Z" fill="#007aff"></path><path d="M0 116L22.8 118.3C45.7 120.7 91.3 125.3 137 130.2C182.7 135 228.3 140 274 138.2C319.7 136.3 365.3 127.7 411.2 120C457 112.3 503 105.7 548.8 107.3C594.7 109 640.3 119 686 123C731.7 127 777.3 125 823 120.5C868.7 116 914.3 109 937.2 105.5L960 102L960 0L937.2 0C914.3 0 868.7 0 823 0C777.3 0 731.7 0 686 0C640.3 0 594.7 0 548.8 0C503 0 457 0 411.2 0C365.3 0 319.7 0 274 0C228.3 0 182.7 0 137 0C91.3 0 45.7 0 22.8 0L0 0Z" fill="#008cff"></path><path d="M0 66L22.8 70.2C45.7 74.3 91.3 82.7 137 80.3C182.7 78 228.3 65 274 66.2C319.7 67.3 365.3 82.7 411.2 87C457 91.3 503 84.7 548.8 78.7C594.7 72.7 640.3 67.3 686 69.5C731.7 71.7 777.3 81.3 823 87.8C868.7 94.3 914.3 97.7 937.2 99.3L960 101L960 0L937.2 0C914.3 0 868.7 0 823 0C777.3 0 731.7 0 686 0C640.3 0 594.7 0 548.8 0C503 0 457 0 411.2 0C365.3 0 319.7 0 274 0C228.3 0 182.7 0 137 0C91.3 0 45.7 0 22.8 0L0 0Z" fill="#2b9dfc"></path><path d="M0 48L22.8 49C45.7 50 91.3 52 137 54.3C182.7 56.7 228.3 59.3 274 61.3C319.7 63.3 365.3 64.7 411.2 60.3C457 56 503 46 548.8 43C594.7 40 640.3 44 686 44.7C731.7 45.3 777.3 42.7 823 42.3C868.7 42 914.3 44 937.2 45L960 46L960 0L937.2 0C914.3 0 868.7 0 823 0C777.3 0 731.7 0 686 0C640.3 0 594.7 0 548.8 0C503 0 457 0 411.2 0C365.3 0 319.7 0 274 0C228.3 0 182.7 0 137 0C91.3 0 45.7 0 22.8 0L0 0Z" fill="#4facf7"></path></svg>