<svg id="visual" viewBox="0 0 900 600" width="900" height="600" xmlns="http://www.w3.org/2000/svg" xmlns:xlink="http://www.w3.org/1999/xlink" version="1.1"><rect x="0" y="0" width="900" height="600" fill="#fcfbfe"></rect><defs><linearGradient id="grad1_0" x1="33.3%" y1="100%" x2="100%" y2="0%"><stop offset="20%" stop-color="#fcfbfe" stop-opacity="1"></stop><stop offset="80%" stop-color="#fcfbfe" stop-opacity="1"></stop></linearGradient></defs><defs><linearGradient id="grad2_0" x1="0%" y1="100%" x2="66.7%" y2="0%"><stop offset="20%" stop-color="#fcfbfe" stop-opacity="1"></stop><stop offset="80%" stop-color="#fcfbfe" stop-opacity="1"></stop></linearGradient></defs><g transform="translate(900, 600)"><path d="M-432.7 0C-419.8 -55.8 -407 -111.5 -382.5 -158.4C-358 -205.3 -321.9 -243.4 -285.7 -285.7C-249.5 -328 -213.2 -374.5 -165.6 -399.7C-118 -424.9 -59 -428.8 0 -432.7L0 0Z" fill="#8ccbff"></path></g><g transform="translate(0, 0)"><path d="M432.7 0C418 52.5 403.3 105 385.3 159.6C367.2 214.1 345.7 270.8 305.9 305.9C266.2 341.1 208.2 354.8 154.2 372.3C100.2 389.9 50.1 411.3 0 432.7L0 0Z" fill="#8ccbff"></path></g></svg>