<svg id="visual" viewBox="0 0 900 600" width="900" height="600" xmlns="http://www.w3.org/2000/svg" xmlns:xlink="http://www.w3.org/1999/xlink" version="1.1"><path d="M0 274L129 274L129 366L257 366L257 328L386 328L386 293L514 293L514 316L643 316L643 357L771 357L771 330L900 330L900 291L900 601L900 601L771 601L771 601L643 601L643 601L514 601L514 601L386 601L386 601L257 601L257 601L129 601L129 601L0 601Z" fill="#c8dbe4"></path><path d="M0 396L129 396L129 441L257 441L257 431L386 431L386 359L514 359L514 384L643 384L643 366L771 366L771 348L900 348L900 462L900 601L900 601L771 601L771 601L643 601L643 601L514 601L514 601L386 601L386 601L257 601L257 601L129 601L129 601L0 601Z" fill="#afcad8"></path><path d="M0 475L129 475L129 512L257 512L257 501L386 501L386 511L514 511L514 490L643 490L643 533L771 533L771 503L900 503L900 508L900 601L900 601L771 601L771 601L643 601L643 601L514 601L514 601L386 601L386 601L257 601L257 601L129 601L129 601L0 601Z" fill="#89aabb"></path></svg>