<svg id="visual" viewBox="0 0 675 900" width="675" height="900" xmlns="http://www.w3.org/2000/svg" xmlns:xlink="http://www.w3.org/1999/xlink" version="1.1"><path d="M0 411L96 411L96 549L193 549L193 492L289 492L289 441L386 441L386 474L482 474L482 536L579 536L579 495L675 495L675 437L675 901L675 901L579 901L579 901L482 901L482 901L386 901L386 901L289 901L289 901L193 901L193 901L96 901L96 901L0 901Z" fill="#c8dbe4"></path><path d="M0 594L96 594L96 662L193 662L193 647L289 647L289 539L386 539L386 576L482 576L482 549L579 549L579 523L675 523L675 694L675 901L675 901L579 901L579 901L482 901L482 901L386 901L386 901L289 901L289 901L193 901L193 901L96 901L96 901L0 901Z" fill="#afcad8"></path><path d="M0 713L96 713L96 769L193 769L193 751L289 751L289 767L386 767L386 735L482 735L482 800L579 800L579 756L675 756L675 763L675 901L675 901L579 901L579 901L482 901L482 901L386 901L386 901L289 901L289 901L193 901L193 901L96 901L96 901L0 901Z" fill="#89aabb"></path></svg>