<svg id="visual" viewBox="0 0 675 900" width="675" height="900" xmlns="http://www.w3.org/2000/svg" xmlns:xlink="http://www.w3.org/1999/xlink" version="1.1"><path d="M0 411L96 411L96 538L193 538L193 558L289 558L289 438L386 438L386 433L482 433L482 378L579 378L579 426L675 426L675 525L675 901L675 901L579 901L579 901L482 901L482 901L386 901L386 901L289 901L289 901L193 901L193 901L96 901L96 901L0 901Z" fill="#b5c8ce"></path><path d="M0 627L96 627L96 626L193 626L193 642L289 642L289 529L386 529L386 591L482 591L482 596L579 596L579 542L675 542L675 642L675 901L675 901L579 901L579 901L482 901L482 901L386 901L386 901L289 901L289 901L193 901L193 901L96 901L96 901L0 901Z" fill="#94b0b7"></path><path d="M0 741L96 741L96 730L193 730L193 702L289 702L289 744L386 744L386 711L482 711L482 783L579 783L579 687L675 687L675 765L675 901L675 901L579 901L579 901L482 901L482 901L386 901L386 901L289 901L289 901L193 901L193 901L96 901L96 901L0 901Z" fill="#6b8287"></path></svg>